<?xml version="1.0" encoding="UTF-8" standalone="no"?>
<!DOCTYPE svg PUBLIC "-//W3C//DTD SVG 1.1//EN"
 "http://www.w3.org/Graphics/SVG/1.1/DTD/svg11.dtd">
<!-- Generated by graphviz version 12.1.2 (20240928.0832)
 -->
<!-- Title: SageScript Pages: 1 -->
<svg width="1535pt" height="667pt"
 viewBox="0.00 0.00 1534.88 667.25" xmlns="http://www.w3.org/2000/svg" xmlns:xlink="http://www.w3.org/1999/xlink">
<g id="graph0" class="graph" transform="scale(1 1) rotate(0) translate(4 663.25)">
<title>SageScript</title>
<polygon fill="white" stroke="none" points="-4,4 -4,-663.25 1530.88,-663.25 1530.88,4 -4,4"/>
<g id="clust1" class="cluster">
<title>cluster_data_flow</title>
<polygon fill="lightgrey" stroke="lightgrey" points="392.5,-8 392.5,-420.75 924.5,-420.75 924.5,-8 392.5,-8"/>
<text text-anchor="middle" x="658.5" y="-403.45" font-family="Times New Roman,serif" font-size="14.00">Data Flow</text>
</g>
<!-- Main -->
<g id="node1" class="node">
<title>Main</title>
<polygon fill="lightgreen" stroke="black" points="199.5,-659.25 145.5,-659.25 145.5,-623.25 199.5,-623.25 199.5,-659.25"/>
<text text-anchor="middle" x="172.5" y="-635.83" font-family="Arial" font-size="14.00">Main</text>
</g>
<!-- App -->
<g id="node2" class="node">
<title>App</title>
<polygon fill="lightgreen" stroke="black" points="225.5,-586.25 119.5,-586.25 119.5,-550.25 225.5,-550.25 225.5,-586.25"/>
<text text-anchor="middle" x="172.5" y="-562.83" font-family="Arial" font-size="14.00">SageScriptApp</text>
</g>
<!-- Main&#45;&gt;App -->
<g id="edge1" class="edge">
<title>Main&#45;&gt;App</title>
<path fill="none" stroke="black" d="M172.5,-623.06C172.5,-615.48 172.5,-606.35 172.5,-597.79"/>
<polygon fill="black" stroke="black" points="176,-597.79 172.5,-587.79 169,-597.79 176,-597.79"/>
</g>
<!-- Config -->
<g id="node3" class="node">
<title>Config</title>
<polygon fill="lightgreen" stroke="black" points="79,-498.5 0,-498.5 0,-462.5 79,-462.5 79,-498.5"/>
<text text-anchor="middle" x="39.5" y="-475.07" font-family="Arial" font-size="14.00">AppConfig</text>
</g>
<!-- App&#45;&gt;Config -->
<g id="edge2" class="edge">
<title>App&#45;&gt;Config</title>
<path fill="none" stroke="black" d="M119.18,-555.5C103.23,-550.21 86.42,-542.73 73,-532.25 64.87,-525.9 58.06,-517 52.75,-508.42"/>
<polygon fill="black" stroke="black" points="55.95,-506.96 47.97,-499.99 49.86,-510.42 55.95,-506.96"/>
<text text-anchor="middle" x="87.25" y="-518.95" font-family="Arial" font-size="14.00">uses</text>
</g>
<!-- Factory -->
<g id="node4" class="node">
<title>Factory</title>
<polygon fill="lightgreen" stroke="black" points="144.5,-388.25 38.5,-388.25 38.5,-352.25 144.5,-352.25 144.5,-388.25"/>
<text text-anchor="middle" x="91.5" y="-364.82" font-family="Arial" font-size="14.00">ServiceFactory</text>
</g>
<!-- App&#45;&gt;Factory -->
<g id="edge3" class="edge">
<title>App&#45;&gt;Factory</title>
<path fill="none" stroke="black" d="M159.98,-549.86C150.72,-536.37 138.31,-516.92 130,-498.5 115.27,-465.84 104.25,-426 97.85,-399.7"/>
<polygon fill="black" stroke="black" points="101.29,-399.04 95.59,-390.11 94.48,-400.65 101.29,-399.04"/>
<text text-anchor="middle" x="144.25" y="-475.07" font-family="Arial" font-size="14.00">uses</text>
</g>
<!-- Strategy -->
<g id="node8" class="node">
<title>Strategy</title>
<polygon fill="lightpink" stroke="black" points="1198.88,-498.5 1098.12,-498.5 1098.12,-462.5 1198.88,-462.5 1198.88,-498.5"/>
<text text-anchor="middle" x="1148.5" y="-475.07" font-family="Arial" font-size="14.00">MenuStrategy</text>
</g>
<!-- App&#45;&gt;Strategy -->
<g id="edge11" class="edge">
<title>App&#45;&gt;Strategy</title>
<path fill="none" stroke="black" d="M225.67,-562.58C392.85,-547.89 907.36,-502.69 1086.35,-486.96"/>
<polygon fill="black" stroke="black" points="1086.49,-490.46 1096.14,-486.1 1085.87,-483.49 1086.49,-490.46"/>
<text text-anchor="middle" x="762.17" y="-518.95" font-family="Arial" font-size="14.00">uses</text>
</g>
<!-- Command -->
<g id="node13" class="node">
<title>Command</title>
<polygon fill="lightsalmon" stroke="black" points="686.38,-498.5 606.62,-498.5 606.62,-462.5 686.38,-462.5 686.38,-498.5"/>
<text text-anchor="middle" x="646.5" y="-475.07" font-family="Arial" font-size="14.00">Command</text>
</g>
<!-- App&#45;&gt;Command -->
<g id="edge16" class="edge">
<title>App&#45;&gt;Command</title>
<path fill="none" stroke="black" d="M225.95,-557.58C317.9,-540.95 504.81,-507.13 595.23,-490.78"/>
<polygon fill="black" stroke="black" points="595.58,-494.27 604.8,-489.04 594.33,-487.38 595.58,-494.27"/>
<text text-anchor="middle" x="466.21" y="-518.95" font-family="Arial" font-size="14.00">uses</text>
</g>
<!-- ImgHandler -->
<g id="node18" class="node">
<title>ImgHandler</title>
<polygon fill="lightcyan" stroke="black" points="558,-300.5 401,-300.5 401,-264.5 558,-264.5 558,-300.5"/>
<text text-anchor="middle" x="479.5" y="-277.07" font-family="Arial" font-size="14.00">ImageWorkflowHandler</text>
</g>
<!-- App&#45;&gt;ImgHandler -->
<g id="edge17" class="edge">
<title>App&#45;&gt;ImgHandler</title>
<path fill="none" stroke="black" d="M168.34,-549.97C159.89,-510.32 145.2,-411.66 191.5,-352.25 219.56,-316.25 244.37,-330.15 288.5,-318.5 307.72,-313.43 349.75,-305.6 389.51,-298.64"/>
<polygon fill="black" stroke="black" points="389.9,-302.12 399.15,-296.96 388.7,-295.23 389.9,-302.12"/>
<text text-anchor="middle" x="175.93" y="-431.2" font-family="Arial" font-size="14.00">uses</text>
</g>
<!-- DBManager -->
<g id="node5" class="node">
<title>DBManager</title>
<polygon fill="lightyellow" stroke="black" points="361.25,-300.5 223.75,-300.5 223.75,-264.5 361.25,-264.5 361.25,-300.5"/>
<text text-anchor="middle" x="292.5" y="-277.07" font-family="Arial" font-size="14.00">ChromaDBManager</text>
</g>
<!-- Factory&#45;&gt;DBManager -->
<g id="edge4" class="edge">
<title>Factory&#45;&gt;DBManager</title>
<path fill="none" stroke="black" d="M98.69,-352.06C104.3,-340.79 113.16,-326.69 125.25,-318.5 150.74,-301.25 183.03,-292.23 212.44,-287.61"/>
<polygon fill="black" stroke="black" points="212.63,-291.11 222.04,-286.25 211.65,-284.18 212.63,-291.11"/>
<text text-anchor="middle" x="147.38" y="-320.95" font-family="Arial" font-size="14.00">creates</text>
</g>
<!-- LLMService -->
<g id="node6" class="node">
<title>LLMService</title>
<polygon fill="lightyellow" stroke="black" points="384.5,-52 296.5,-52 296.5,-16 384.5,-16 384.5,-52"/>
<text text-anchor="middle" x="340.5" y="-28.57" font-family="Arial" font-size="14.00">LLMService</text>
</g>
<!-- Factory&#45;&gt;LLMService -->
<g id="edge5" class="edge">
<title>Factory&#45;&gt;LLMService</title>
<path fill="none" stroke="black" d="M91.5,-351.84C91.5,-334.52 91.5,-307.17 91.5,-283.5 91.5,-283.5 91.5,-283.5 91.5,-120.75 91.5,-118.21 212.03,-77.69 285.37,-53.28"/>
<polygon fill="black" stroke="black" points="286.45,-56.61 294.83,-50.13 284.24,-49.97 286.45,-56.61"/>
<text text-anchor="middle" x="113.62" y="-204.07" font-family="Arial" font-size="14.00">creates</text>
</g>
<!-- ImageService -->
<g id="node7" class="node">
<title>ImageService</title>
<polygon fill="lightyellow" stroke="black" points="278.12,-52 178.88,-52 178.88,-16 278.12,-16 278.12,-52"/>
<text text-anchor="middle" x="228.5" y="-28.57" font-family="Arial" font-size="14.00">ImageService</text>
</g>
<!-- Factory&#45;&gt;ImageService -->
<g id="edge6" class="edge">
<title>Factory&#45;&gt;ImageService</title>
<path fill="none" stroke="black" d="M59.88,-351.82C37.52,-336.94 11.5,-313.23 11.5,-283.5 11.5,-283.5 11.5,-283.5 11.5,-120.75 11.5,-83.75 44.05,-85.82 77.5,-70 105.64,-56.7 139.17,-48.27 167.48,-43.03"/>
<polygon fill="black" stroke="black" points="167.71,-46.54 176.96,-41.37 166.5,-39.65 167.71,-46.54"/>
<text text-anchor="middle" x="33.62" y="-204.07" font-family="Arial" font-size="14.00">creates</text>
</g>
<!-- GenStrategy -->
<g id="node9" class="node">
<title>GenStrategy</title>
<polygon fill="lightpink" stroke="black" points="1366.25,-388.25 1210.75,-388.25 1210.75,-352.25 1366.25,-352.25 1366.25,-388.25"/>
<text text-anchor="middle" x="1288.5" y="-364.82" font-family="Arial" font-size="14.00">GenerateCodeStrategy</text>
</g>
<!-- Strategy&#45;&gt;GenStrategy -->
<g id="edge7" class="edge">
<title>Strategy&#45;&gt;GenStrategy</title>
<path fill="none" stroke="black" stroke-dasharray="5,2" d="M1174.75,-462.13C1182.8,-456.63 1191.61,-450.44 1199.5,-444.5 1220.2,-428.93 1242.72,-410.38 1259.93,-395.84"/>
<polygon fill="black" stroke="black" points="1261.89,-398.76 1267.25,-389.62 1257.36,-393.43 1261.89,-398.76"/>
<text text-anchor="middle" x="1243.1" y="-431.2" font-family="Arial" font-size="14.00">extends</text>
</g>
<!-- RevStrategy -->
<g id="node10" class="node">
<title>RevStrategy</title>
<polygon fill="lightpink" stroke="black" points="1526.88,-388.25 1384.12,-388.25 1384.12,-352.25 1526.88,-352.25 1526.88,-388.25"/>
<text text-anchor="middle" x="1455.5" y="-364.82" font-family="Arial" font-size="14.00">ReviewCodeStrategy</text>
</g>
<!-- Strategy&#45;&gt;RevStrategy -->
<g id="edge8" class="edge">
<title>Strategy&#45;&gt;RevStrategy</title>
<path fill="none" stroke="black" stroke-dasharray="5,2" d="M1199.07,-470.94C1246.04,-461.95 1317.29,-445.61 1375.5,-420.75 1391.73,-413.82 1408.51,-403.92 1422.49,-394.79"/>
<polygon fill="black" stroke="black" points="1424.06,-397.95 1430.42,-389.48 1420.16,-392.14 1424.06,-397.95"/>
<text text-anchor="middle" x="1375.53" y="-431.2" font-family="Arial" font-size="14.00">extends</text>
</g>
<!-- IdxStrategy -->
<g id="node11" class="node">
<title>IdxStrategy</title>
<polygon fill="lightpink" stroke="black" points="1086.12,-388.25 932.88,-388.25 932.88,-352.25 1086.12,-352.25 1086.12,-388.25"/>
<text text-anchor="middle" x="1009.5" y="-364.82" font-family="Arial" font-size="14.00">IndexDirectoryStrategy</text>
</g>
<!-- Strategy&#45;&gt;IdxStrategy -->
<g id="edge9" class="edge">
<title>Strategy&#45;&gt;IdxStrategy</title>
<path fill="none" stroke="black" stroke-dasharray="5,2" d="M1122.08,-462.17C1114,-456.68 1105.16,-450.48 1097.25,-444.5 1076.76,-429.01 1054.56,-410.46 1037.61,-395.9"/>
<polygon fill="black" stroke="black" points="1040.27,-393.57 1030.41,-389.68 1035.69,-398.86 1040.27,-393.57"/>
<text text-anchor="middle" x="1120.88" y="-431.2" font-family="Arial" font-size="14.00">extends</text>
</g>
<!-- ExitStrategy -->
<g id="node12" class="node">
<title>ExitStrategy</title>
<polygon fill="lightpink" stroke="black" points="1192.88,-388.25 1104.12,-388.25 1104.12,-352.25 1192.88,-352.25 1192.88,-388.25"/>
<text text-anchor="middle" x="1148.5" y="-364.82" font-family="Arial" font-size="14.00">ExitStrategy</text>
</g>
<!-- Strategy&#45;&gt;ExitStrategy -->
<g id="edge10" class="edge">
<title>Strategy&#45;&gt;ExitStrategy</title>
<path fill="none" stroke="black" stroke-dasharray="5,2" d="M1148.5,-462.11C1148.5,-445.38 1148.5,-419.79 1148.5,-400.02"/>
<polygon fill="black" stroke="black" points="1152,-400.11 1148.5,-390.11 1145,-400.11 1152,-400.11"/>
<text text-anchor="middle" x="1172.12" y="-431.2" font-family="Arial" font-size="14.00">extends</text>
</g>
<!-- TextGenCmd -->
<g id="node14" class="node">
<title>TextGenCmd</title>
<polygon fill="lightsalmon" stroke="black" points="916.75,-139.75 674.25,-139.75 674.25,-103.75 916.75,-103.75 916.75,-139.75"/>
<text text-anchor="middle" x="795.5" y="-116.33" font-family="Arial" font-size="14.00">TextBasedCodeGenerationCommand</text>
</g>
<!-- Command&#45;&gt;TextGenCmd -->
<g id="edge12" class="edge">
<title>Command&#45;&gt;TextGenCmd</title>
<path fill="none" stroke="black" stroke-dasharray="5,2" d="M686.82,-477.96C752.05,-473.08 873.5,-453.01 873.5,-371.25 873.5,-371.25 873.5,-371.25 873.5,-208.5 873.5,-182.96 854.33,-161.67 835,-146.69"/>
<polygon fill="black" stroke="black" points="837.25,-144 827.1,-140.95 833.13,-149.66 837.25,-144"/>
<text text-anchor="middle" x="897.12" y="-277.07" font-family="Arial" font-size="14.00">extends</text>
</g>
<!-- ImgGenCmd -->
<g id="node15" class="node">
<title>ImgGenCmd</title>
<polygon fill="lightsalmon" stroke="black" points="656.5,-139.75 400.5,-139.75 400.5,-103.75 656.5,-103.75 656.5,-139.75"/>
<text text-anchor="middle" x="528.5" y="-116.33" font-family="Arial" font-size="14.00">ImageBasedCodeGenerationCommand</text>
</g>
<!-- Command&#45;&gt;ImgGenCmd -->
<g id="edge13" class="edge">
<title>Command&#45;&gt;ImgGenCmd</title>
<path fill="none" stroke="black" stroke-dasharray="5,2" d="M686.61,-468.29C729.22,-453.63 790.5,-423.48 790.5,-371.25 790.5,-371.25 790.5,-371.25 790.5,-208.5 790.5,-173.23 761.51,-172.55 729.5,-157.75 717.14,-152.03 694.06,-146.59 667.83,-141.78"/>
<polygon fill="black" stroke="black" points="668.77,-138.39 658.32,-140.09 667.55,-145.28 668.77,-138.39"/>
<text text-anchor="middle" x="814.12" y="-277.07" font-family="Arial" font-size="14.00">extends</text>
</g>
<!-- CodeRevCmd -->
<g id="node16" class="node">
<title>CodeRevCmd</title>
<polygon fill="lightsalmon" stroke="black" points="724.62,-388.25 568.38,-388.25 568.38,-352.25 724.62,-352.25 724.62,-388.25"/>
<text text-anchor="middle" x="646.5" y="-364.82" font-family="Arial" font-size="14.00">CodeReviewCommand</text>
</g>
<!-- Command&#45;&gt;CodeRevCmd -->
<g id="edge14" class="edge">
<title>Command&#45;&gt;CodeRevCmd</title>
<path fill="none" stroke="black" stroke-dasharray="5,2" d="M646.5,-462.11C646.5,-445.38 646.5,-419.79 646.5,-400.02"/>
<polygon fill="black" stroke="black" points="650,-400.11 646.5,-390.11 643,-400.11 650,-400.11"/>
<text text-anchor="middle" x="670.12" y="-431.2" font-family="Arial" font-size="14.00">extends</text>
</g>
<!-- DirIdxCmd -->
<g id="node17" class="node">
<title>DirIdxCmd</title>
<polygon fill="lightsalmon" stroke="black" points="384.88,-388.25 200.12,-388.25 200.12,-352.25 384.88,-352.25 384.88,-388.25"/>
<text text-anchor="middle" x="292.5" y="-364.82" font-family="Arial" font-size="14.00">DirectoryIndexingCommand</text>
</g>
<!-- Command&#45;&gt;DirIdxCmd -->
<g id="edge15" class="edge">
<title>Command&#45;&gt;DirIdxCmd</title>
<path fill="none" stroke="black" stroke-dasharray="5,2" d="M606.27,-473.57C554.73,-465.25 463.16,-448 388.5,-420.75 368.92,-413.6 348.24,-403.33 331.1,-393.99"/>
<polygon fill="black" stroke="black" points="333.23,-391.16 322.79,-389.36 329.83,-397.28 333.23,-391.16"/>
<text text-anchor="middle" x="488.45" y="-431.2" font-family="Arial" font-size="14.00">extends</text>
</g>
<!-- TextGenCmd&#45;&gt;LLMService -->
<g id="edge20" class="edge">
<title>TextGenCmd&#45;&gt;LLMService</title>
<path fill="none" stroke="black" d="M710.33,-103.31C657.77,-92.87 588.88,-79.78 527.5,-70 469.71,-60.79 451.3,-65.78 396.02,-53.65"/>
<polygon fill="black" stroke="black" points="396.86,-50.25 386.33,-51.42 395.29,-57.07 396.86,-50.25"/>
<text text-anchor="middle" x="630.44" y="-72.45" font-family="Arial" font-size="14.00">uses</text>
</g>
<!-- CodeOutput -->
<g id="node22" class="node">
<title>CodeOutput</title>
<ellipse fill="lightblue" stroke="white" cx="743.5" cy="-34" rx="77.51" ry="18"/>
<text text-anchor="middle" x="743.5" y="-28.57" font-family="Arial" font-size="14.00">Generated Code</text>
</g>
<!-- TextGenCmd&#45;&gt;CodeOutput -->
<g id="edge30" class="edge">
<title>TextGenCmd&#45;&gt;CodeOutput</title>
<path fill="none" stroke="black" d="M784.98,-103.4C777.79,-91.54 768.12,-75.59 759.92,-62.08"/>
<polygon fill="black" stroke="black" points="762.97,-60.36 754.79,-53.62 756.98,-63.99 762.97,-60.36"/>
</g>
<!-- ImgGenCmd&#45;&gt;LLMService -->
<g id="edge21" class="edge">
<title>ImgGenCmd&#45;&gt;LLMService</title>
<path fill="none" stroke="black" d="M514.37,-103.59C504.17,-92.34 489.43,-78.23 473.5,-70 442.41,-53.93 428.39,-60.8 395.68,-53.66"/>
<polygon fill="black" stroke="black" points="396.91,-50.36 386.36,-51.32 395.21,-57.15 396.91,-50.36"/>
<text text-anchor="middle" x="509.59" y="-72.45" font-family="Arial" font-size="14.00">uses</text>
</g>
<!-- ImgGenCmd&#45;&gt;ImageService -->
<g id="edge22" class="edge">
<title>ImgGenCmd&#45;&gt;ImageService</title>
<path fill="none" stroke="black" d="M467.07,-103.28C420.84,-90.11 355.6,-71.51 289.08,-52.45"/>
<polygon fill="black" stroke="black" points="290.42,-49.19 279.85,-49.8 288.49,-55.92 290.42,-49.19"/>
<text text-anchor="middle" x="413.96" y="-72.45" font-family="Arial" font-size="14.00">uses</text>
</g>
<!-- ImgGenCmd&#45;&gt;CodeOutput -->
<g id="edge31" class="edge">
<title>ImgGenCmd&#45;&gt;CodeOutput</title>
<path fill="none" stroke="black" d="M646.71,-103.25C661.92,-98.7 676.9,-92.97 690.5,-85.75 702.39,-79.44 713.49,-69.69 722.43,-60.42"/>
<polygon fill="black" stroke="black" points="724.81,-63.01 728.97,-53.27 719.64,-58.28 724.81,-63.01"/>
</g>
<!-- CodeRevCmd&#45;&gt;DBManager -->
<g id="edge23" class="edge">
<title>CodeRevCmd&#45;&gt;DBManager</title>
<path fill="none" stroke="black" d="M574.44,-351.79C515.82,-337.6 433.17,-317.58 372.51,-302.88"/>
<polygon fill="black" stroke="black" points="373.47,-299.51 362.92,-300.56 371.82,-306.32 373.47,-299.51"/>
<text text-anchor="middle" x="515.46" y="-320.95" font-family="Arial" font-size="14.00">uses</text>
</g>
<!-- CodeRevCmd&#45;&gt;LLMService -->
<g id="edge24" class="edge">
<title>CodeRevCmd&#45;&gt;LLMService</title>
<path fill="none" stroke="black" d="M677.15,-351.86C694.86,-339.94 715.55,-322.34 725.5,-300.5 745.88,-255.75 742.83,-224.64 706.5,-191.5 601.68,-95.89 504.8,-225.14 391.5,-139.75 364.11,-119.11 373.68,-100.75 358.5,-70 357.3,-67.57 356.04,-65.05 354.77,-62.53"/>
<polygon fill="black" stroke="black" points="357.94,-61.05 350.28,-53.74 351.71,-64.23 357.94,-61.05"/>
<text text-anchor="middle" x="747.46" y="-204.07" font-family="Arial" font-size="14.00">uses</text>
</g>
<!-- ReviewOutput -->
<g id="node23" class="node">
<title>ReviewOutput</title>
<ellipse fill="lightblue" stroke="white" cx="646.5" cy="-282.5" rx="70.03" ry="18"/>
<text text-anchor="middle" x="646.5" y="-277.07" font-family="Arial" font-size="14.00">Review Output</text>
</g>
<!-- CodeRevCmd&#45;&gt;ReviewOutput -->
<g id="edge32" class="edge">
<title>CodeRevCmd&#45;&gt;ReviewOutput</title>
<path fill="none" stroke="black" d="M646.5,-351.9C646.5,-340.51 646.5,-325.34 646.5,-312.18"/>
<polygon fill="black" stroke="black" points="650,-312.34 646.5,-302.34 643,-312.34 650,-312.34"/>
</g>
<!-- DirIdxCmd&#45;&gt;DBManager -->
<g id="edge25" class="edge">
<title>DirIdxCmd&#45;&gt;DBManager</title>
<path fill="none" stroke="black" d="M292.5,-351.9C292.5,-340.51 292.5,-325.34 292.5,-312.18"/>
<polygon fill="black" stroke="black" points="296,-312.34 292.5,-302.34 289,-312.34 296,-312.34"/>
<text text-anchor="middle" x="306.75" y="-320.95" font-family="Arial" font-size="14.00">uses</text>
</g>
<!-- ImgHandler&#45;&gt;LLMService -->
<g id="edge19" class="edge">
<title>ImgHandler&#45;&gt;LLMService</title>
<path fill="none" stroke="black" d="M454.64,-264.22C441.5,-254.37 425.64,-241.27 413.5,-227.5 383.06,-192.97 374.93,-182.74 358.5,-139.75 349.04,-115 344.53,-85.05 342.39,-63.53"/>
<polygon fill="black" stroke="black" points="345.89,-63.39 341.54,-53.74 338.92,-64 345.89,-63.39"/>
<text text-anchor="middle" x="387.11" y="-160.2" font-family="Arial" font-size="14.00">uses</text>
</g>
<!-- ImgHandler&#45;&gt;ImageService -->
<g id="edge18" class="edge">
<title>ImgHandler&#45;&gt;ImageService</title>
<path fill="none" stroke="black" d="M440.42,-264.16C421.37,-254.74 398.7,-242.05 380.5,-227.5 320.07,-179.19 268.85,-102.5 244.21,-62.04"/>
<polygon fill="black" stroke="black" points="247.32,-60.41 239.17,-53.63 241.32,-64.01 247.32,-60.41"/>
<text text-anchor="middle" x="337.61" y="-160.2" font-family="Arial" font-size="14.00">uses</text>
</g>
<!-- StructuredData -->
<g id="node21" class="node">
<title>StructuredData</title>
<ellipse fill="lightblue" stroke="white" cx="496.5" cy="-209.5" rx="73.52" ry="18"/>
<text text-anchor="middle" x="496.5" y="-204.07" font-family="Arial" font-size="14.00">Structured Data</text>
</g>
<!-- ImgHandler&#45;&gt;StructuredData -->
<g id="edge28" class="edge">
<title>ImgHandler&#45;&gt;StructuredData</title>
<path fill="none" stroke="black" d="M483.62,-264.31C485.47,-256.55 487.72,-247.18 489.81,-238.45"/>
<polygon fill="black" stroke="black" points="493.15,-239.54 492.07,-229 486.34,-237.91 493.15,-239.54"/>
</g>
<!-- UserInput -->
<g id="node19" class="node">
<title>UserInput</title>
<ellipse fill="lightblue" stroke="white" cx="645.5" cy="-209.5" rx="52.06" ry="18"/>
<text text-anchor="middle" x="645.5" y="-204.07" font-family="Arial" font-size="14.00">User Input</text>
</g>
<!-- UserInput&#45;&gt;TextGenCmd -->
<g id="edge26" class="edge">
<title>UserInput&#45;&gt;TextGenCmd</title>
<path fill="none" stroke="black" d="M671.63,-193.56C694.7,-180.37 728.7,-160.94 755.25,-145.76"/>
<polygon fill="black" stroke="black" points="756.76,-148.93 763.71,-140.92 753.29,-142.85 756.76,-148.93"/>
</g>
<!-- ImageData -->
<g id="node20" class="node">
<title>ImageData</title>
<ellipse fill="lightblue" stroke="white" cx="479.5" cy="-370.25" rx="57.55" ry="18"/>
<text text-anchor="middle" x="479.5" y="-364.82" font-family="Arial" font-size="14.00">Image Data</text>
</g>
<!-- ImageData&#45;&gt;ImgHandler -->
<g id="edge27" class="edge">
<title>ImageData&#45;&gt;ImgHandler</title>
<path fill="none" stroke="black" d="M479.5,-351.9C479.5,-340.51 479.5,-325.34 479.5,-312.18"/>
<polygon fill="black" stroke="black" points="483,-312.34 479.5,-302.34 476,-312.34 483,-312.34"/>
</g>
<!-- StructuredData&#45;&gt;ImgGenCmd -->
<g id="edge29" class="edge">
<title>StructuredData&#45;&gt;ImgGenCmd</title>
<path fill="none" stroke="black" d="M502.98,-191.15C507.31,-179.52 513.12,-163.97 518.1,-150.63"/>
<polygon fill="black" stroke="black" points="521.29,-152.09 521.5,-141.5 514.73,-149.64 521.29,-152.09"/>
</g>
</g>
</svg>
